<svg width="28" height="29" viewBox="0 0 28 29" fill="none" xmlns="http://www.w3.org/2000/svg">
<g clip-path="url(#clip0_1_49)">
<path d="M16.9167 3.50666C18.0833 3.50666 19.1567 3.81 20.1367 4.41666C21.1167 5.02333 21.8867 5.84777 22.4467 6.89C23.0378 7.97889 23.3333 9.18444 23.3333 10.5067C23.3333 12.3111 22.9133 14.0456 22.0733 15.71C21.3578 17.1256 20.3389 18.4867 19.0167 19.7933C17.99 20.82 16.7689 21.8233 15.3533 22.8033C14.56 23.3478 13.5178 24.0011 12.2267 24.7633L11.6667 25.09L11.1067 24.7633C9.75333 23.97 8.66444 23.2856 7.84 22.71C6.36222 21.6833 5.09444 20.6256 4.03667 19.5367C2.69889 18.1367 1.68778 16.69 1.00333 15.1967L6.48667 15.1733L7.58333 13.3767L11.0833 19.21L13.4867 15.1733H17.5V12.84H12.18L11.0833 14.66L7.58333 8.82666L5.18 12.84H0.256667C0.0855556 12.0778 0 11.3 0 10.5067C0 9.18444 0.295556 7.97889 0.886667 6.89C1.44667 5.84777 2.21667 5.02333 3.19667 4.41666C4.17667 3.81 5.25 3.50666 6.41667 3.50666C7.42778 3.52222 8.43111 3.77111 9.42667 4.25333C10.2667 4.65777 11.0133 5.18666 11.6667 5.84C12.32 5.18666 13.0667 4.65777 13.9067 4.25333C14.9022 3.75555 15.9056 3.50666 16.9167 3.50666Z" fill="white"/>
</g>
<defs>
<clipPath id="clip0_1_49">
<rect width="28" height="28" fill="white" transform="matrix(1 0 0 -1 0 28.31)"/>
</clipPath>
</defs>
</svg>
