<svg width="42" height="43" viewBox="0 0 42 43" fill="none" xmlns="http://www.w3.org/2000/svg">
<g clip-path="url(#clip0_1_178)">
<path d="M16.8333 22.91H18.9167L19.75 19.5766H16.8333V17.91C16.8333 17.5322 16.85 17.26 16.8833 17.0933C16.95 16.8266 17.0944 16.6211 17.3167 16.4766C17.5833 16.3211 17.9778 16.2433 18.5 16.2433H19.75V13.4433C19.5611 13.4211 19.2611 13.3988 18.85 13.3766C18.3389 13.3433 17.8444 13.3266 17.3667 13.3266C16.6 13.3266 15.925 13.4794 15.3417 13.785C14.7583 14.0905 14.3111 14.5266 14 15.0933C13.6667 15.7044 13.5 16.4211 13.5 17.2433V19.5766H11V22.91H13.5V29.9933H16.8333V22.91Z" fill="#F9AC54"/>
</g>
<rect x="0.5" y="1.15991" width="41" height="41" rx="20.5" stroke="#F9AC54"/>
<defs>
<clipPath id="clip0_1_178">
<rect width="20" height="20" fill="white" transform="matrix(1 0 0 -1 11 31.6599)"/>
</clipPath>
</defs>
</svg>
