<svg width="46" height="47" viewBox="0 0 46 47" fill="none" xmlns="http://www.w3.org/2000/svg">
<rect y="0.309998" width="46" height="46.5" rx="5" fill="#D79447"/>
<g clip-path="url(#clip0_1_26)">
<path d="M16.5833 22.1433H16.7467C17.1667 22.19 17.5244 22.3611 17.82 22.6567C18.1156 22.9522 18.2867 23.31 18.3333 23.73V23.8933V24.0567C18.2867 24.4767 18.1156 24.8344 17.82 25.13C17.5244 25.4255 17.1667 25.5967 16.7467 25.6433H16.5833H12.5V27.9767H16.5833C17.2367 27.9767 17.8472 27.8328 18.415 27.545C18.9828 27.2572 19.4572 26.8644 19.8383 26.3667C20.2194 25.8689 20.4722 25.3089 20.5967 24.6867L20.62 24.4767H27.6667C28.4756 24.4767 29.2533 24.3133 30 23.9867V29.1433C30 29.89 29.7822 30.5667 29.3467 31.1733C28.9111 31.78 28.3511 32.2 27.6667 32.4333V33.81C27.6667 34.1367 27.5539 34.4128 27.3283 34.6383C27.1028 34.8639 26.8267 34.9767 26.5 34.9767H12.5C12.1733 34.9767 11.8972 34.8639 11.6717 34.6383C11.4461 34.4128 11.3333 34.1367 11.3333 33.81V32.4333C10.6489 32.2 10.0889 31.78 9.65333 31.1733C9.21778 30.5667 9 29.89 9 29.1433V24.4767C9 24.0567 9.105 23.6678 9.315 23.31C9.525 22.9522 9.80889 22.6683 10.1667 22.4583C10.5244 22.2483 10.9133 22.1433 11.3333 22.1433H16.5833ZM31.1667 18.06V18.6433V18.8533C31.1356 19.4289 30.9683 19.9617 30.665 20.4517C30.3617 20.9417 29.965 21.3383 29.475 21.6417C28.985 21.945 28.4522 22.1122 27.8767 22.1433H20.27C19.9589 21.4744 19.4961 20.93 18.8817 20.51C18.2672 20.09 17.5789 19.8567 16.8167 19.81H11.3333C10.4933 19.81 9.71556 20.02 9 20.44V16.31C9 15.47 9.21 14.6922 9.63 13.9767C10.05 13.2611 10.6178 12.6933 11.3333 12.2733C12.0489 11.8533 12.8267 11.6433 13.6667 11.6433H24.75C25.9167 11.6433 26.99 11.9311 27.97 12.5067C28.95 13.0822 29.7278 13.86 30.3033 14.84C30.8789 15.82 31.1667 16.8933 31.1667 18.06Z" fill="white"/>
</g>
<defs>
<clipPath id="clip0_1_26">
<rect width="28" height="28" fill="white" transform="matrix(1 0 0 -1 9 37.31)"/>
</clipPath>
</defs>
</svg>
