<svg width="46" height="47" viewBox="0 0 46 47" fill="none" xmlns="http://www.w3.org/2000/svg">
<rect y="0.309998" width="46" height="46.5" rx="5" fill="#D79447"/>
<g clip-path="url(#clip0_1_66)">
<path d="M16.84 19.2733L14.6933 20.0433V24.1733H12.36V18.41L18.52 16.17C18.8156 16.0611 19.1267 16.0144 19.4533 16.03C20.0911 16.0456 20.6706 16.2478 21.1917 16.6367C21.7128 17.0256 22.0744 17.5311 22.2767 18.1533C22.4944 18.8222 22.6889 19.2811 22.86 19.53C23.4044 20.2456 24.085 20.8094 24.9017 21.2217C25.7183 21.6339 26.5933 21.84 27.5267 21.84V24.1733C26.2822 24.1733 25.1078 23.9089 24.0033 23.38C22.9144 22.8667 21.9889 22.1433 21.2267 21.21L20.41 25.83L22.86 27.8833V35.84H20.5267V28.98L17.89 26.74L17.0267 31.57L9 30.1467L9.39667 27.86L15.1367 28.8633L16.84 19.2733ZM21.11 15.4233C20.69 15.4233 20.3011 15.3222 19.9433 15.12C19.5856 14.9178 19.3017 14.6378 19.0917 14.28C18.8817 13.9222 18.7767 13.5294 18.7767 13.1017C18.7767 12.6739 18.8817 12.2811 19.0917 11.9233C19.3017 11.5656 19.5856 11.2817 19.9433 11.0717C20.3011 10.8617 20.69 10.7606 21.11 10.7683C21.53 10.7761 21.9189 10.8811 22.2767 11.0833C22.6344 11.2856 22.9183 11.5656 23.1283 11.9233C23.3383 12.2811 23.4433 12.6739 23.4433 13.1017C23.4433 13.5294 23.3383 13.9222 23.1283 14.28C22.9183 14.6378 22.6344 14.9217 22.2767 15.1317C21.9189 15.3417 21.53 15.4467 21.11 15.4467V15.4233Z" fill="white"/>
</g>
<defs>
<clipPath id="clip0_1_66">
<rect width="28" height="28" fill="white" transform="matrix(1 0 0 -1 9 37.31)"/>
</clipPath>
</defs>
</svg>
