<svg width="53" height="53" viewBox="0 0 53 53" fill="none" xmlns="http://www.w3.org/2000/svg">
<rect x="0.32666" width="52" height="52.5" rx="5" fill="#D79447"/>
<g clip-path="url(#clip0_1_159)">
<path d="M35.66 34.1667H37.9933V36.5H12.3267V34.1667H14.66V16.6667C14.66 16.34 14.7728 16.0639 14.9983 15.8383C15.2239 15.6128 15.5 15.5 15.8267 15.5H27.4933C27.82 15.5 28.0961 15.6128 28.3217 15.8383C28.5472 16.0639 28.66 16.34 28.66 16.6667V34.1667H33.3267V24.8333H30.9933V22.5H34.4933C34.82 22.5 35.0961 22.6128 35.3217 22.8383C35.5472 23.0639 35.66 23.34 35.66 23.6667V34.1667ZM16.9933 17.8333V34.1667H26.3267V17.8333H16.9933ZM19.3267 24.8333H23.9933V27.1667H19.3267V24.8333ZM19.3267 20.1667H23.9933V22.5H19.3267V20.1667Z" fill="white"/>
</g>
<defs>
<clipPath id="clip0_1_159">
<rect width="28" height="28" fill="white" transform="matrix(1 0 0 -1 12.3267 40)"/>
</clipPath>
</defs>
</svg>
