<svg width="53" height="53" viewBox="0 0 53 53" fill="none" xmlns="http://www.w3.org/2000/svg">
<rect x="0.66333" width="52" height="52.5" rx="5" fill="#D79447"/>
<g clip-path="url(#clip0_1_148)">
<path d="M31.33 22.7334L37.42 18.4867C37.5444 18.3934 37.6883 18.3584 37.8517 18.3817C38.015 18.405 38.1356 18.4867 38.2133 18.6267C38.2911 18.72 38.33 18.8289 38.33 18.9534V33.0467C38.33 33.2023 38.2717 33.3384 38.155 33.455C38.0383 33.5717 37.9022 33.63 37.7467 33.63C37.6222 33.63 37.5133 33.5912 37.42 33.5134L31.33 29.2667V34.1667C31.33 34.4934 31.2172 34.7695 30.9917 34.995C30.7661 35.2206 30.49 35.3334 30.1633 35.3334H13.83C13.5033 35.3334 13.2272 35.2206 13.0017 34.995C12.7761 34.7695 12.6633 34.4934 12.6633 34.1667V17.8334C12.6633 17.5067 12.7761 17.2306 13.0017 17.005C13.2272 16.7795 13.5033 16.6667 13.83 16.6667H30.1633C30.49 16.6667 30.7661 16.7795 30.9917 17.005C31.2172 17.2306 31.33 17.5067 31.33 17.8334V22.7334ZM17.33 21.3334V23.6667H19.6633V21.3334H17.33Z" fill="white"/>
</g>
<defs>
<clipPath id="clip0_1_148">
<rect width="28" height="28" fill="white" transform="matrix(1 0 0 -1 12.6633 40)"/>
</clipPath>
</defs>
</svg>
