<svg width="52" height="53" viewBox="0 0 52 53" fill="none" xmlns="http://www.w3.org/2000/svg">
<rect width="52" height="52.5" rx="5" fill="#D79447"/>
<g clip-path="url(#clip0_1_136)">
<path d="M21.3333 28.31V37.6434H12C12 35.9478 12.4278 34.3767 13.2833 32.93C14.1078 31.5145 15.22 30.3945 16.62 29.57C18.0667 28.73 19.6378 28.31 21.3333 28.31ZM28.3333 37.06L24.9033 38.8567L25.5567 35.03L22.78 32.3467L26.63 31.7867L28.3333 28.31L30.06 31.7867L33.8867 32.3467L31.11 35.03L31.7633 38.8567L28.3333 37.06ZM21.3333 27.1434C20.0733 27.1434 18.8989 26.8245 17.81 26.1867C16.7522 25.5645 15.9122 24.7245 15.29 23.6667C14.6522 22.5778 14.3333 21.3995 14.3333 20.1317C14.3333 18.8639 14.6522 17.6856 15.29 16.5967C15.9122 15.5545 16.7522 14.7222 17.81 14.1C18.8989 13.4622 20.0772 13.1434 21.345 13.1434C22.6128 13.1434 23.7911 13.4622 24.88 14.1C25.9222 14.7222 26.7544 15.5545 27.3767 16.5967C28.0144 17.6856 28.3333 18.8639 28.3333 20.1317C28.3333 21.3995 28.0144 22.5778 27.3767 23.6667C26.7544 24.7245 25.9222 25.5645 24.88 26.1867C23.7911 26.8245 22.6089 27.1434 21.3333 27.1434Z" fill="white"/>
</g>
<defs>
<clipPath id="clip0_1_136">
<rect width="28" height="28" fill="white" transform="matrix(1 0 0 -1 12 40)"/>
</clipPath>
</defs>
</svg>
