<svg width="46" height="47" viewBox="0 0 46 47" fill="none" xmlns="http://www.w3.org/2000/svg">
<rect y="0.309998" width="46" height="46.5" rx="5" fill="#D79447"/>
<g clip-path="url(#clip0_1_46)">
<path d="M25.9167 12.5067C27.0833 12.5067 28.1567 12.81 29.1367 13.4167C30.1167 14.0233 30.8867 14.8478 31.4467 15.89C32.0378 16.9789 32.3333 18.1844 32.3333 19.5067C32.3333 21.3111 31.9133 23.0456 31.0733 24.71C30.3578 26.1256 29.3389 27.4867 28.0167 28.7933C26.99 29.82 25.7689 30.8233 24.3533 31.8033C23.56 32.3478 22.5178 33.0011 21.2267 33.7633L20.6667 34.09L20.1067 33.7633C18.7533 32.97 17.6644 32.2856 16.84 31.71C15.3622 30.6833 14.0944 29.6256 13.0367 28.5367C11.6989 27.1367 10.6878 25.69 10.0033 24.1967L15.4867 24.1733L16.5833 22.3767L20.0833 28.21L22.4867 24.1733H26.5V21.84H21.18L20.0833 23.66L16.5833 17.8267L14.18 21.84H9.25667C9.08556 21.0778 9 20.3 9 19.5067C9 18.1844 9.29556 16.9789 9.88667 15.89C10.4467 14.8478 11.2167 14.0233 12.1967 13.4167C13.1767 12.81 14.25 12.5067 15.4167 12.5067C16.4278 12.5222 17.4311 12.7711 18.4267 13.2533C19.2667 13.6578 20.0133 14.1867 20.6667 14.84C21.32 14.1867 22.0667 13.6578 22.9067 13.2533C23.9022 12.7556 24.9056 12.5067 25.9167 12.5067Z" fill="white"/>
</g>
<defs>
<clipPath id="clip0_1_46">
<rect width="28" height="28" fill="white" transform="matrix(1 0 0 -1 9 37.31)"/>
</clipPath>
</defs>
</svg>
