<svg width="46" height="47" viewBox="0 0 46 47" fill="none" xmlns="http://www.w3.org/2000/svg">
<rect y="0.309998" width="46" height="46.5" rx="5" fill="#D79447"/>
<g clip-path="url(#clip0_1_87)">
<path d="M20.6667 12.2267C21.9267 12.2267 23.1011 12.5456 24.19 13.1833C25.2478 13.8056 26.0878 14.6456 26.71 15.7033C27.3478 16.7922 27.6667 17.9667 27.6667 19.2267V20.3933H32.3333V22.7267H30.98L30.0933 33.32C30.0622 33.6311 29.9339 33.8878 29.7083 34.09C29.4828 34.2922 29.2222 34.3933 28.9267 34.3933H12.4067C12.1111 34.3933 11.8506 34.2922 11.625 34.09C11.3994 33.8878 11.2711 33.6311 11.24 33.32L10.3533 22.7267H9V20.3933H13.6667V19.2267C13.6667 17.9667 13.9856 16.7922 14.6233 15.7033C15.2456 14.6456 16.0856 13.8056 17.1433 13.1833C18.2322 12.5456 19.4067 12.2267 20.6667 12.2267ZM21.8333 25.06H19.5V29.7267H21.8333V25.06ZM17.1667 25.06H14.8333V29.7267H17.1667V25.06ZM26.5 25.06H24.1667V29.7267H26.5V25.06ZM20.6667 14.56C19.8422 14.56 19.0839 14.7583 18.3917 15.155C17.6994 15.5517 17.1394 16.0883 16.7117 16.765C16.2839 17.4417 16.0467 18.1845 16 18.9933V20.3933H25.3333V19.2267C25.3333 18.4022 25.135 17.6439 24.7383 16.9517C24.3417 16.2595 23.805 15.6995 23.1283 15.2717C22.4517 14.8439 21.7089 14.6067 20.9 14.56H20.6667Z" fill="white"/>
</g>
<defs>
<clipPath id="clip0_1_87">
<rect width="28" height="28" fill="white" transform="matrix(1 0 0 -1 9 37.31)"/>
</clipPath>
</defs>
</svg>
